<svg id="caterpillar" viewBox="0 0 300 300" style="border: 2px green solid">
  <circle id="tail3" cx="250" cy="150" r="20" fill="violet"></circle>
  <circle id="tail2" cx="230" cy="160" r="30" fill="indigo"></circle>
  <g id="tail1">
    <line id="tail1-leg-left" x1="190" y1="157" x2="190" y2="225" stroke="black" strokeWidth="5"></line>
    <line id="tail1-leg-right" x1="210" y1="157" x2="210" y2="225" stroke="black" strokeWidth="5"></line>
    <circle id="tail1-body" cx="200" cy="157" r="40" fill="blue"></circle>
  </g>
  <g id="body3">
    <line id="body3-leg-left" x1="165" y1="165" x2="165" y2="240" stroke="black" strokeWidth="5"></line>
    <line id="body3-leg-right" x1="180" y1="165" x2="180" y2="240" stroke="black" strokeWidth="5"></line>
    <circle id="body3-body" cx="170" cy="165" r="50" fill="green"></circle>
  </g>
  <g id="body2">
    <line id="body2-leg-left" x1="140" y1="155" x2="140" y2="230" stroke="black" strokeWidth="5"></line>
    <line id="body2-leg-right" x1="160" y1="155" x2="160" y2="230" stroke="black" strokeWidth="5"></line>
    <circle id="body2-body" cx="150" cy="155" r="50" fill="yellow"></circle>
  </g>
  <g id="body1">
    <line id="body1-leg-left" x1="110" y1="160" x2="110" y2="235" stroke="black" strokeWidth="5"></line>
    <line id="body1-leg-right" x1="130" y1="160" x2="130" y2="235" stroke="black" strokeWidth="5"></line>
    <circle id="body1-body" cx="120" cy="160" r="50" fill="orange"></circle>
  </g>
  <g id="head">
    <g id="head-antennae">
      <g id="head-antennae-left">
        <path id="head-antennae-left-stamen" stroke="black" strokeWidth="5" fill="none" d="M 90,115 C 100,100 100,100 80,80"></path>
        <circle id="head-antennae-left-pistil" cx="80" cy="80" r="10" stroke="black" strokeWidth="5" fill="gray"></circle>
      </g>
      <g id="head-antennae-right">
        <path id="head-antennae-right-stamen" stroke="black" strokeWidth="5" fill="none" d="M 110,115 C 100,100 100,100 110,80"></path>
        <circle id="head-antennae-right-pistil" cx="110" cy="80" r="10" stroke="black" strokeWidth="5" fill="gray"></circle>
      </g>
    </g>
    <circle id="head-head" cx="100" cy="150" r="50" fill="red"></circle>
    <g id="head-face">
      <g id="head-face-eyes">
        <circle id="head-face-eyes-left" cx="80" cy="140" r="10" fill="white"></circle>
        <circle id="head-face-eyes-right" cx="120" cy="140" r="10" fill="white"></circle>
      </g>
      <path id="head-face-mouth" stroke="white" strokeWidth="10" fill="none" d="M 80,160 C 90,180 110,180 120,160"></path>
    </g>
  </g>
</svg>

