<svg viewBox="0 0 100 100"> 
  <defs>
    <clipPath id="eyesClipPath">
      <ellipse cx="36.5" cy="31" rx="1.5" ry="0" />
      <ellipse cx="41.5" cy="31" rx="1.5" ry="0" />
    </clipPath>
  </defs>

  <g stroke="none">
    <rect x="0" y="0" width="100" height="100" fill="#84f" />
    <circle cx="62" cy="29" r="2" fill="#84f" />
    <circle cx="62" cy="29" r="2" fill="none" stroke="#fefefe" stroke-width="0.1" stroke-dasharray="0.1% 15%" />

    <rect x="0" y="0" width="100" height="100" fill="#4b0081" />
    <circle cx="60" cy="29.5" r="3" fill="#4b0081" />
    <circle cx="60" cy="29.5" r="3" fill="none" stroke="#fefefe" stroke-width="0.1" stroke-dasharray="0.1% 15%" />

    <rect x="0" y="0" width="100" height="100" fill="#0000fe" />
    <circle cx="57" cy="29" r="4" fill="#0000fe" />
    <circle cx="57" cy="29" r="4" fill="none" stroke="#fefefe" stroke-width="0.1" stroke-dasharray="0.1% 15%" />

    <rect x="0" y="0" width="100" height="100" fill="#00fe00" />
    <circle cx="53" cy="29.5" r="5.5" fill="#00fe00" />
    <circle cx="53" cy="29.5" r="5.5" fill="none" stroke="#fefefe" stroke-width="0.1" stroke-dasharray="0.1% 15%" />

    <rect x="0" y="0" width="100" height="100" fill="#fefe00" />
    <circle cx="48.5" cy="29" r="6" fill="#fefe00" />
    <circle cx="48.5" cy="29" r="6" fill="none" stroke="#fefefe" stroke-width="0.1" stroke-dasharray="0.1% 15%" />

    <rect x="0" y="0" width="100" height="100" fill="#fea400" />
    <circle cx="44" cy="29.5" r="6" fill="#fea400" />
    <circle cx="44" cy="29.5" r="6" fill="none" stroke="#fefefe" stroke-width="0.1" stroke-dasharray="0.1% 15%" />

    <rect x="0" y="0" width="100" height="100" fill="#fe0000" />
    <circle cx="39" cy="29" r="6.5" fill="#fe0000" />
    <circle cx="39" cy="29" r="6.5" fill="none" stroke="#fefefe" stroke-width="0.1" stroke-dasharray="0.1% 15%" />

    <ellipse cx="36.5" cy="27" rx="1.5" ry="0.1" fill="#fefefe" />
    <ellipse cx="41.5" cy="27" rx="1.5" ry="0.1" fill="#fefefe" />
  </g>
</svg>
